<?xml version="1.0" encoding="UTF-8"?>
<svg viewBox="0 0 201 201" xmlns="http://www.w3.org/2000/svg">
<path d="m101.13 0h-0.456c-55.102 0-99.772 44.683-99.772 99.802v0.4553c0 55.119 44.67 99.802 99.772 99.802h0.456c55.103 0 99.772-44.683 99.772-99.802v-0.4553c0-55.119-44.669-99.802-99.772-99.802z" fill="#00B0F2"/>
<path d="m38.781 96.62c0.2803-0.1402 0.5607-0.2733 0.834-0.3995 4.7507-2.2008 9.5645-4.2615 14.371-6.3222 0.2592 0 0.6935-0.3013 0.9388-0.3995 0.3714-0.1612 0.7428-0.3154 1.1142-0.4766l2.1371-0.9182c1.4294-0.6097 2.8518-1.2195 4.2812-1.8293 2.8518-1.2196 5.7036-2.4392 8.5555-3.6657 5.7036-2.4392 11.414-4.8853 17.118-7.3245 5.7037-2.4391 11.414-4.8853 17.118-7.3244 5.704-2.4392 11.414-4.8853 17.118-7.3245 5.704-2.4391 11.414-4.8853 17.118-7.3244 1.268-0.5467 2.642-1.3598 4.001-1.5981 1.142-0.2032 2.256-0.5957 3.405-0.813 2.18-0.4136 4.583-0.5818 6.671 0.3224 0.722 0.3154 1.387 0.757 1.941 1.3107 2.649 2.6214 2.277 6.9249 1.717 10.612-3.903 25.695-7.806 51.397-11.716 77.092-0.532 3.526-1.261 7.395-4.043 9.624-2.354 1.885-5.704 2.095-8.612 1.296-2.907-0.806-5.472-2.495-7.987-4.156-10.434-6.911-20.874-13.822-31.308-20.733-2.4804-1.64-5.2411-3.785-5.2131-6.763 0.014-1.795 1.086-3.393 2.1791-4.816 9.067-11.831 22.149-19.961 31.882-31.246 1.373-1.591 2.453-4.4647 0.568-5.3829-1.121-0.5467-2.411 0.1962-3.434 0.9042-12.865 8.9365-25.722 17.88-38.587 26.817-4.1972 2.916-8.5976 5.915-13.657 6.63-4.5265 0.645-9.081-0.616-13.46-1.906-3.6716-1.079-7.3364-2.187-10.987-3.329-1.941-0.603-3.945-1.255-5.4445-2.622s-2.3612-3.665-1.4573-5.4878c0.5676-1.1425 1.6677-1.8644 2.8238-2.4532l0.0139 7e-3z" fill="#FEFFFC"/>
</svg>
